<?xml version="1.0" encoding="UTF-8"?><svg id="Layer_2" xmlns="http://www.w3.org/2000/svg" viewBox="0 0 98.3 24.04"><g id="Layer_1-2"><g><path d="m73.45.47v9h-1.51V.95l.49.02-4.19,8.5h-1.69L62.36.98l.49-.02v8.51h-1.51V.47h2.42l4.03,8.32h-.79L71.03.47h2.42Z"/><path d="m76.07,1.78c-.3,0-.54-.08-.73-.25-.19-.16-.29-.38-.29-.64s.1-.48.29-.64c.19-.16.44-.25.73-.25s.55.08.74.25c.19.16.28.38.28.64s-.09.48-.28.64c-.19.16-.43.25-.74.25Zm-.78.85l.78.14.78-.14v6.84h-1.56V2.63Z"/><path d="m81.41,8.94c-.62,0-1.18-.13-1.68-.4-.5-.27-.89-.64-1.18-1.12-.29-.48-.43-1.04-.43-1.69s.14-1.21.43-1.69.68-.85,1.18-1.12,1.06-.4,1.68-.4c.46,0,.89.07,1.29.22.4.14.75.33,1.07.57.32.24.58.5.8.78.22.28.39.57.51.86s.18.56.18.8c0,.31-.09.65-.28,1.03-.18.37-.45.72-.79,1.05-.34.33-.75.6-1.22.81-.47.21-1,.32-1.57.32Zm3.26-1.14v-1.2l.06-.22v-1.31l-.06-.24v-2.16h1.56v4.98c0,.87-.18,1.6-.55,2.19s-.87,1.03-1.51,1.33c-.64.3-1.38.44-2.21.44-.61,0-1.17-.08-1.68-.24-.51-.16-1.01-.4-1.49-.73v-1.3c.49.38.99.65,1.51.81.52.16,1.04.23,1.56.23.91,0,1.61-.22,2.09-.67.48-.45.72-1.09.72-1.92Zm-2.78-.01c.57,0,1.09-.16,1.57-.49.48-.33.9-.85,1.28-1.57-.38-.74-.8-1.27-1.28-1.59-.48-.32-1-.49-1.57-.49-.46,0-.86.09-1.19.26-.33.18-.58.42-.75.73s-.26.67-.26,1.08.09.76.26,1.07.42.56.75.73c.33.18.72.26,1.19.26Z"/><path d="m87.85.23h1.56v9.24h-1.56V.23Z"/><path d="m94.77,9.64c-.79,0-1.5-.15-2.11-.45-.62-.3-1.1-.72-1.45-1.25-.35-.54-.53-1.16-.53-1.87s.17-1.32.5-1.85c.33-.53.79-.95,1.38-1.25.59-.3,1.26-.45,2.02-.45s1.42.17,1.97.51c.56.34.99.82,1.29,1.43.3.62.46,1.34.46,2.17h-6.4v-1.19h5.62l-.78.44c-.02-.45-.13-.83-.32-1.15-.19-.32-.44-.57-.76-.74-.32-.17-.69-.26-1.12-.26-.46,0-.85.09-1.19.28s-.61.44-.8.77c-.19.33-.29.73-.29,1.18,0,.5.11.94.34,1.31.23.37.55.65.97.85.42.2.92.29,1.49.29.52,0,1.05-.08,1.6-.25.54-.16,1.02-.39,1.44-.69v1.13c-.42.32-.92.57-1.52.76-.6.18-1.2.28-1.82.28Zm-.23-7.86c-.3,0-.54-.08-.73-.25s-.29-.38-.29-.64.1-.48.29-.64c.19-.16.44-.25.73-.25s.55.08.74.25c.19.16.28.38.28.64s-.09.48-.28.64c-.19.16-.43.25-.74.25Z"/><path d="m5.63,23.2h-.74l3.88-8.33h1.69l-4.34,9h-1.76L0,14.87h1.7l3.92,8.33Z"/><path d="m16.97,20.47c-.15.71-.4,1.34-.76,1.87-.35.54-.79.95-1.3,1.25s-1.09.44-1.72.44c-.66,0-1.25-.15-1.76-.45-.51-.3-.91-.72-1.2-1.25-.29-.54-.43-1.16-.43-1.86s.14-1.33.43-1.87c.29-.53.69-.95,1.2-1.25.51-.3,1.1-.45,1.76-.45s1.21.15,1.72.44c.52.3.95.71,1.31,1.24s.61,1.16.75,1.88Zm-5.59,0c0,.46.09.86.28,1.21s.45.62.77.82c.33.2.7.29,1.13.29s.83-.1,1.2-.29c.37-.2.69-.47.98-.82.28-.35.51-.75.68-1.21-.17-.46-.39-.86-.68-1.21-.28-.35-.61-.62-.98-.82-.37-.2-.77-.29-1.2-.29s-.8.1-1.13.29c-.33.2-.59.47-.77.82s-.28.75-.28,1.21Zm5.11,3.4l-.26-2.52.31-.88-.31-.86.26-2.53h1.61l-.36,3.4.36,3.4h-1.61Z"/><path d="m26.63,21.8c0,.46-.13.85-.38,1.19s-.64.59-1.16.77c-.52.18-1.17.27-1.96.27s-1.51-.1-2.1-.31c-.59-.2-1.05-.49-1.37-.86-.32-.37-.5-.8-.52-1.29h1.58c.05.26.18.48.39.68.21.2.49.35.84.45.35.1.75.16,1.19.16.65,0,1.14-.08,1.46-.23.33-.16.49-.39.49-.71,0-.22-.11-.38-.33-.49-.22-.11-.63-.2-1.24-.25l-1.33-.12c-.72-.06-1.29-.19-1.7-.39-.42-.2-.71-.44-.89-.72-.18-.28-.26-.59-.26-.91,0-.46.14-.85.43-1.16s.69-.55,1.2-.71c.51-.16,1.11-.25,1.79-.25s1.33.1,1.88.29c.55.2.99.47,1.32.82s.51.75.55,1.21h-1.58c-.03-.18-.13-.36-.28-.53-.16-.17-.39-.32-.71-.43-.32-.12-.74-.17-1.27-.17-.56,0-1,.07-1.31.22s-.47.36-.47.64c0,.18.1.33.29.45s.55.21,1.07.26l1.72.16c.69.06,1.23.19,1.61.37.39.18.66.41.82.69.16.28.24.6.24.95Z"/><path d="m28.67,16.18c-.3,0-.54-.08-.73-.25-.19-.16-.29-.38-.29-.64s.1-.48.29-.64c.19-.16.44-.25.73-.25s.55.08.74.25c.19.16.28.38.28.64s-.09.48-.28.64c-.19.16-.43.25-.74.25Zm-.78.85l.78.14.78-.14v6.84h-1.56v-6.84Z"/><path d="m31.1,14.63h1.56v9.24h-1.56v-9.24Z"/><path d="m35.1,16.18c-.3,0-.54-.08-.73-.25-.19-.16-.29-.38-.29-.64s.1-.48.29-.64c.19-.16.44-.25.73-.25s.55.08.74.25c.19.16.28.38.28.64s-.09.48-.28.64c-.19.16-.43.25-.74.25Zm-.78.85l.78.14.78-.14v6.84h-1.56v-6.84Z"/><path d="m44.35,20.47c-.15.71-.4,1.34-.76,1.87-.35.54-.79.95-1.3,1.25-.52.3-1.09.44-1.72.44-.66,0-1.25-.15-1.76-.45-.51-.3-.91-.72-1.2-1.25-.29-.54-.43-1.16-.43-1.86s.14-1.33.43-1.87c.29-.53.69-.95,1.2-1.25.51-.3,1.1-.45,1.76-.45s1.21.15,1.72.44c.52.3.95.71,1.31,1.24.36.53.61,1.16.75,1.88Zm-5.59,0c0,.46.09.86.28,1.21.19.35.45.62.77.82.33.2.7.29,1.13.29s.83-.1,1.2-.29c.37-.2.69-.47.98-.82s.51-.75.68-1.21c-.17-.46-.39-.86-.68-1.21s-.61-.62-.98-.82c-.37-.2-.77-.29-1.2-.29s-.8.1-1.13.29c-.33.2-.59.47-.77.82-.19.35-.28.75-.28,1.21Zm5.11,3.4l-.26-2.52.31-.88-.31-.86.26-2.53h1.61l-.36,3.4.36,3.4h-1.61Z"/><path d="m49.82,24.04c-.62,0-1.15-.13-1.59-.38-.44-.26-.77-.62-1-1.1-.23-.48-.35-1.05-.35-1.72v-3.76h1.56v3.52c0,.7.16,1.24.49,1.6.32.36.79.55,1.4.55.44,0,.82-.1,1.13-.29s.56-.47.74-.82.26-.77.26-1.24l.54.3c-.06.7-.24,1.29-.53,1.79-.29.5-.66.88-1.12,1.15s-.97.4-1.54.4Zm3.04-.17l-.4-2.45v-4.34h1.56v4.58l.4,2.21h-1.56Z"/><path d="m62.8,21.8c0,.46-.13.85-.38,1.19-.26.34-.64.59-1.16.77-.52.18-1.17.27-1.96.27s-1.51-.1-2.1-.31c-.59-.2-1.05-.49-1.37-.86-.32-.37-.5-.8-.52-1.29h1.58c.05.26.18.48.39.68.21.2.49.35.84.45.35.1.75.16,1.19.16.65,0,1.14-.08,1.46-.23.33-.16.49-.39.49-.71,0-.22-.11-.38-.33-.49-.22-.11-.63-.2-1.24-.25l-1.33-.12c-.72-.06-1.29-.19-1.7-.39-.42-.2-.71-.44-.89-.72-.18-.28-.26-.59-.26-.91,0-.46.14-.85.43-1.16s.69-.55,1.2-.71,1.11-.25,1.79-.25,1.33.1,1.88.29c.55.2.99.47,1.32.82s.51.75.55,1.21h-1.58c-.03-.18-.13-.36-.28-.53-.16-.17-.39-.32-.71-.43-.32-.12-.74-.17-1.27-.17-.56,0-1,.07-1.31.22-.32.14-.47.36-.47.64,0,.18.1.33.29.45.19.12.55.21,1.07.26l1.72.16c.69.06,1.23.19,1.61.37.39.18.66.41.82.69.16.28.24.6.24.95Z"/><path d="m65.62,22.51l-.46-.17,4.32-5.27h1.8l-5.77,6.79h-1.45v-9.24h1.56v7.88Zm1.93-2l1.09-.98,2.84,4.34h-1.84l-2.1-3.36Z"/><path d="m78.8,20.47c-.15.71-.4,1.34-.76,1.87-.35.54-.79.95-1.3,1.25-.52.3-1.09.44-1.72.44-.66,0-1.25-.15-1.76-.45-.51-.3-.91-.72-1.2-1.25-.29-.54-.43-1.16-.43-1.86s.14-1.33.43-1.87c.29-.53.69-.95,1.2-1.25.51-.3,1.1-.45,1.76-.45s1.21.15,1.72.44c.52.3.95.71,1.31,1.24.36.53.61,1.16.75,1.88Zm-5.59,0c0,.46.09.86.28,1.21.19.35.45.62.77.82.33.2.7.29,1.13.29s.83-.1,1.2-.29c.37-.2.69-.47.98-.82.28-.35.51-.75.68-1.21-.17-.46-.39-.86-.68-1.21-.28-.35-.61-.62-.98-.82-.37-.2-.77-.29-1.2-.29s-.8.1-1.13.29c-.33.2-.59.47-.77.82-.19.35-.28.75-.28,1.21Zm5.11,3.4l-.26-2.52.31-.88-.31-.86.26-2.53h1.61l-.36,3.4.36,3.4h-1.61Z"/><path d="m82.21,16.18c-.3,0-.54-.08-.73-.25-.19-.16-.29-.38-.29-.64s.1-.48.29-.64c.19-.16.44-.25.73-.25s.55.08.74.25c.19.16.28.38.28.64s-.09.48-.28.64c-.19.16-.43.25-.74.25Zm-.78.85l.78.14.78-.14v6.84h-1.56v-6.84Z"/><path d="m83.88,18.28v-.71l1.45-.37.65-1.9h.91v1.78h3.16v1.2h-3.16v2.94c0,.57.12.97.37,1.19s.64.34,1.19.34c.35,0,.66-.04.94-.11.27-.08.53-.19.78-.33v1.28c-.21.1-.5.2-.88.3-.38.1-.77.14-1.17.14-.66,0-1.2-.11-1.61-.33-.41-.22-.71-.52-.89-.91-.19-.39-.28-.83-.28-1.34v-3.18h-1.45Z"/><path d="m94.78,24.04c-.79,0-1.5-.15-2.11-.45-.62-.3-1.1-.72-1.45-1.25-.35-.54-.53-1.16-.53-1.87s.17-1.32.5-1.85c.33-.53.79-.95,1.38-1.25.59-.3,1.26-.45,2.02-.45s1.42.17,1.97.51c.56.34.99.82,1.29,1.43.3.62.46,1.34.46,2.17h-6.4v-1.19h5.62l-.78.44c-.02-.45-.13-.83-.32-1.15-.19-.32-.44-.57-.76-.74-.32-.17-.69-.26-1.12-.26-.46,0-.85.09-1.19.28-.34.18-.61.44-.8.77-.19.33-.29.73-.29,1.18,0,.5.11.94.34,1.31.23.37.55.65.97.85.42.2.92.29,1.49.29.52,0,1.05-.08,1.6-.25s1.02-.39,1.44-.69v1.13c-.42.32-.92.57-1.52.76s-1.2.28-1.82.28Zm-.23-7.86c-.3,0-.54-.08-.73-.25-.19-.16-.29-.38-.29-.64s.1-.48.29-.64c.19-.16.44-.25.73-.25s.55.08.74.25c.19.16.28.38.28.64s-.09.48-.28.64c-.19.16-.43.25-.74.25Z"/></g></g></svg>